<?xml version="1.0" encoding="UTF-8"?>
<svg xmlns="http://www.w3.org/2000/svg" xmlns:xlink="http://www.w3.org/1999/xlink" width="30" height="30" viewBox="0 0 52 52">
    <title>House Icon</title>
    <defs>
        <path id="house-icon-s4csch1nga" d="M20.49.216l18.757 14.068c.479.36.576 1.038.217 1.517-.36.479-1.038.575-1.517.217l-.648-.487.036 21.878c0 .6-.485 1.086-1.084 1.086H3.426c-.597 0-1.082-.484-1.083-1.082l-.035-21.828-.574.433c-.48.358-1.158.262-1.517-.217-.36-.479-.262-1.158.217-1.517L19.19.216c.386-.289.915-.289 1.3 0zm-.65 2.22L4.47 13.967c.002.032.004.063.004.095l.035 22.267H15.2v-10.64c0-.598.486-1.083 1.084-1.083h7.035c.598 0 1.084.485 1.084 1.083v10.64h10.763l-.035-22.263c0-.052.004-.102.01-.152l-15.3-11.476zm2.396 24.336h-4.869v9.555h4.868v-9.555z"/>
    </defs>
    <g transform="translate(-162 -484) translate(0 443) translate(1 46) translate(161) translate(6.5 .5)">
        <use fill="currentcolor" fill-rule="nonzero" xlink:href="#house-icon-s4csch1nga"/>
    </g>
</svg>
