<?xml version="1.0" encoding="UTF-8"?>
<svg width="30px" height="30px" viewBox="0 0 24 24" version="1.1" xmlns="http://www.w3.org/2000/svg" xmlns:xlink="http://www.w3.org/1999/xlink">
    <title>Search Icon</title>
    <defs>
        <path d="M6.5,0 C10.0891424,0 13,2.91085763 13,6.5 C13,7.85867826 12.5828686,9.12015704 11.8697169,10.1633254 L16.8535534,15.1464466 C17.0488155,15.3417088 17.0488155,15.6582912 16.8535534,15.8535534 C16.6582912,16.0488155 16.3417088,16.0488155 16.1464466,15.8535534 L11.2401402,10.9470744 C10.0542425,12.2105906 8.36909491,13 6.5,13 C2.91085763,13 0,10.0891424 0,6.5 C0,2.91085763 2.91085763,0 6.5,0 Z M6.5,1 C3.46314237,1 1,3.46314237 1,6.5 C1,9.53685763 3.46314237,12 6.5,12 C9.53685763,12 12,9.53685763 12,6.5 C12,3.46314237 9.53685763,1 6.5,1 Z" id="search-path-1"></path>
    </defs>
    <g id="search-Icon/Global/search" stroke="none" stroke-width="1" fill="none" fill-rule="evenodd">
        <g id="search-Swatches/DarkGreen" transform="translate(4.000000, 4.000000)">
            <use id="search-Mask" fill="currentcolor" fill-rule="nonzero" xlink:href="#search-path-1"></use>
        </g>
    </g>
</svg>
