<?xml version="1.0" encoding="UTF-8"?>
<svg width="30px" height="30px" viewBox="0 0 24 24" version="1.1" xmlns="http://www.w3.org/2000/svg" xmlns:xlink="http://www.w3.org/1999/xlink">
    <title>User Icon</title>
    <defs>
        <path d="M6.5003,8.5 C12.9263,8.5 13.0003,14.935 13.0003,15 C13.0003,15.276 12.7763,15.5 12.5003,15.5 L0.5003,15.5 C0.2233,15.5 0.0003,15.276 0.0003,15 L0.000779185185,14.9727409 C0.0122911111,14.51315 0.2885,8.5 6.5003,8.5 Z M6.5003,9.5 C1.9853,9.5 1.1763,13.137 1.0313,14.5 L11.9673,14.5 C11.8183,13.137 10.9983,9.5 6.5003,9.5 Z M6.499,0.5 C8.429,0.5 9.999,2.07 9.999,4 C9.999,5.93 8.429,7.5 6.499,7.5 C4.569,7.5 2.999,5.93 2.999,4 C2.999,2.07 4.569,0.5 6.499,0.5 Z M6.499,1.5 C5.121,1.5 3.999,2.622 3.999,4 C3.999,5.378 5.121,6.5 6.499,6.5 C7.877,6.5 8.999,5.378 8.999,4 C8.999,2.622 7.877,1.5 6.499,1.5 Z" id="user-path-1"></path>
    </defs>
    <g id="user-Icon/Global/user" stroke="none" stroke-width="1" fill="none" fill-rule="evenodd">
        <g id="user-Swatches/DarkGreen" transform="translate(5.000000, 4.000000)">
            <use id="user-Mask" fill="currentcolor" fill-rule="nonzero" xlink:href="#user-path-1"></use>
        </g>
    </g>
</svg>
