<svg width="248" height="102" xmlns="http://www.w3.org/2000/svg">
  <g fill="#323A24" fill-rule="evenodd">
    <path d="M30.716 36.553c-11.506 0-17.987 8.2-27.246 21.69h-.264L5.058 32.32c1.85 1.058 5.687 1.586 8.332 1.586h55.946v.265l-34.917 63.22h4.63c14.019 0 17.722-6.877 30.816-23.807h.265l-3.836 26.452H.958v-.263l35.445-63.221h-5.687z"/>
    <path d="M111.17 61.152c0-15.606-.529-26.45-5.29-26.45-5.423 0-6.216 10.844-6.349 26.45h11.64zm28.04 2.646H99.53c0 15.872 8.465 24.071 20.104 24.071 7.01 0 13.225-2.513 17.457-9.258l.926.528c-4.496 14.021-17.326 22.221-32.535 22.221-20.104 0-36.372-12.433-36.372-34.256 0-21.293 16.665-34.519 36.768-34.519 22.484 0 33.33 14.151 33.33 31.213z"/>
    <path d="M180.012 61.152c0-15.606-.528-26.45-5.291-26.45-5.422 0-6.216 10.844-6.347 26.45h11.638zm28.04 2.646h-39.678c0 15.872 8.464 24.071 20.103 24.071 7.009 0 13.225-2.513 17.458-9.258l.926.528c-4.497 14.021-17.326 22.221-32.536 22.221-20.104 0-36.372-12.433-36.372-34.256 0-21.293 16.665-34.519 36.768-34.519 22.485 0 33.33 14.151 33.33 31.213z"/>
    <path d="M241.62 85.621c0 8.73 0 9.92 5.422 14.152v.264h-41v-.264c5.422-4.232 5.422-5.423 5.422-14.152V15.788c0-9.655-1.587-11.243-7.67-14.549V.975h37.825v84.646z"/>
  </g>
</svg>
